PathFileType	4	(X/Y/Z)	C:\Data\4407\4407cd03.trc
DataRate	CameraRate	NumFrames	NumMarkers	Units	OrigDataRate	OrigDataStartFrame	OrigNumFrames
200.00	200.00	      13	29	mm	200.00	1001	      2000
Frame#	Time	Offset			RShoulder			RUpperArm			RElbow			RForearm			RWrist			LShoulder			LUpperArm			LElbow			LForearm			LWrist			LPSIS			RPSIS			RASIS			RThigh			RKnee			RShank			RAnkle			RHeel			RLat5			RToe			LASIS			LThigh			LKnee			LShank			LAnkle			LHeel			LLat5			LToe			
        X1	Y1	Z1	X2	Y2	Z2	X3	Y3	Z3	X4	Y4	Z4	X5	Y5	Z5	X6	Y6	Z6	X7	Y7	Z7	X8	Y8	Z8	X9	Y9	Z9	X10	Y10	Z10	X11	Y11	Z11	X12	Y12	Z12	X13	Y13	Z13	X14	Y14	Z14	X15	Y15	Z15	X16	Y16	Z16	X17	Y17	Z17	X18	Y18	Z18	X19	Y19	Z19	X20	Y20	Z20	X21	Y21	Z21	X22	Y22	Z22	X23	Y23	Z23	X24	Y24	Z24	X25	Y25	Z25	X26	Y26	Z26	X27	Y27	Z27	X28	Y28	Z28	X29	Y29	Z29	

1001	5.000	423.55798	-125.40297	1421.75745	515.95129	12.50748	1549.03381	586.08038	-86.44160	1379.49402	652.27539	-38.96079	1238.33521	542.54321	80.47162	1187.51953	526.35132	184.52115	1272.75293	172.95695	-26.82521	1552.45569	161.07863	-199.40349	1430.47119	71.74532	-249.94557	1338.28247	106.92226	-154.05299	1207.79871	113.39619	2.41448	1211.87439	311.66812	-139.14032	1059.93665	362.47812	-141.91283	1060.61365	474.32330	59.64976	1024.60474	406.26062	17.61711	703.97186	464.22293	-118.51600	536.22766	418.97665	-121.91718	453.65930	416.53806	-358.44867	187.68631	369.96445	-419.05960	208.80742	435.66425	-291.43500	60.59290	325.92365	-279.61487	61.13127	228.90648	74.39799	1036.77271	264.05203	227.58653	791.75665	199.93336	247.65163	616.39191	241.56053	258.65573	532.04175	216.99594	42.50611	241.60762	272.03729	-19.59388	238.67294	179.90076	148.40105	128.37570	288.93585	154.05084	111.30378	
1002	5.005	424.28397	-124.30932	1424.88965	514.98254	13.03961	1553.82153	586.45496	-85.25721	1385.49768	654.01819	-37.26425	1244.53162	542.41034	80.06143	1193.31909	523.69861	183.84492	1278.62415	172.74690	-28.17965	1556.38696	163.66739	-200.90254	1435.00110	74.37270	-253.78975	1343.91284	107.17796	-156.82173	1213.31958	110.29539	-1.00132	1217.76038	312.06885	-137.75475	1064.46497	363.01480	-140.13879	1065.06201	474.04288	61.21370	1026.67322	406.54047	14.75948	706.15637	464.72351	-124.58887	541.31720	420.40942	-127.49061	459.04099	418.43735	-364.34210	193.33829	371.99399	-423.55389	216.86803	436.87738	-301.72165	61.62789	326.76672	-289.77280	64.04636	228.90770	74.90794	1040.67175	264.67969	227.09389	794.91217	200.29535	245.42427	618.30591	241.84229	258.68564	533.88287	216.44226	55.22299	234.95474	271.37473	-6.61698	229.65927	180.83687	166.56169	125.90221	289.64789	172.01285	109.59602	
1003	5.010	425.16833	-123.28085	1427.92615	513.99774	13.42454	1558.30273	586.94440	-84.03307	1391.47449	655.71271	-35.57829	1250.50562	542.25763	79.81290	1198.89380	521.05365	183.09088	1283.98022	172.56879	-29.35669	1560.00317	166.03110	-202.13437	1439.34082	76.99869	-257.35870	1349.14453	107.63044	-159.63065	1218.49902	108.63127	-2.85111	1222.97607	312.36026	-136.06364	1068.93433	363.31323	-138.40778	1069.31226	473.83234	62.67956	1028.60364	406.50455	12.19281	708.47992	465.01205	-129.66011	546.15277	420.70248	-132.95523	463.88882	419.04306	-369.23425	198.74995	373.19626	-427.61884	224.94992	437.92343	-311.96698	63.43058	328.08008	-299.40771	66.90311	229.18062	75.65573	1044.24512	265.54776	226.15085	797.63190	200.52718	242.93657	619.47864	242.17279	258.15744	535.37158	215.97041	68.02657	228.51010	270.73810	6.02159	220.98689	181.63698	183.81680	123.74728	290.57053	189.22008	108.31102	
1004	5.015	425.64047	-122.35069	1430.55396	512.96576	13.89029	1562.46680	587.58539	-82.84004	1396.93469	657.41956	-34.00589	1256.16821	542.21912	79.34619	1203.96826	518.60419	182.28397	1288.91968	172.26848	-30.55399	1563.31323	168.13576	-203.20158	1443.14417	79.39589	-260.68658	1353.91028	108.20438	-162.08447	1223.17676	106.05827	-5.52966	1228.24390	312.88596	-134.54146	1072.88562	363.77811	-136.89693	1073.38708	473.68185	64.05170	1030.48010	406.46579	9.72203	710.87140	465.30377	-134.33853	550.71143	421.03586	-137.79575	468.34445	420.32028	-374.67422	204.40039	374.20010	-431.62323	232.89468	438.56323	-322.03546	65.38692	329.22296	-308.40930	70.26732	229.14061	76.21262	1047.21387	266.13611	225.39432	799.69171	201.22699	240.47160	620.43561	242.63026	257.55847	536.57654	215.64743	80.84927	222.34061	270.01862	18.63515	212.66438	182.78391	200.64978	121.91757	291.82507	206.28093	107.47876	
1005	5.020	426.33725	-121.36820	1433.12659	512.00848	14.29244	1566.47180	588.35327	-81.43704	1402.21899	659.07196	-32.64168	1261.58081	542.39685	78.71799	1208.88452	516.17456	181.40416	1293.40076	171.86768	-31.42483	1566.32690	170.16286	-204.13519	1446.74707	81.85387	-263.86761	1358.12549	108.79933	-164.43248	1227.62573	103.58572	-7.85850	1233.35632	313.27814	-133.18358	1076.67773	364.17310	-135.29558	1077.16223	473.90594	65.23705	1032.28613	406.44757	7.75371	713.64368	465.39148	-138.21797	554.81915	420.94986	-142.40726	472.55356	421.41907	-380.06952	210.25726	375.56226	-435.46600	240.77191	439.04315	-332.31024	67.62215	330.65073	-316.96274	74.03648	229.16441	76.53773	1049.99915	266.77716	224.59338	801.28516	201.66234	237.50177	620.59296	242.90030	256.45691	537.68695	215.20773	93.18848	216.54240	269.39981	31.16094	204.67210	184.24887	217.16159	120.38487	293.42502	222.57880	107.05739	
1006	5.025	426.93576	-120.40485	1435.39905	510.97775	14.44231	1570.12097	589.01093	-80.33961	1407.41748	660.49207	-31.05191	1266.82104	542.48566	78.15134	1213.29541	514.17352	180.40538	1297.21936	171.51395	-32.32574	1569.01367	171.85614	-205.09235	1450.01294	83.99022	-266.64099	1361.90027	109.44319	-166.44102	1231.53638	103.15107	-10.38927	1236.43481	313.74057	-131.91550	1080.19519	364.57813	-133.70905	1080.46252	472.97476	67.83976	1035.94739	406.46213	5.77261	716.17706	465.53522	-141.78508	558.98059	421.25204	-146.43692	476.44482	422.46262	-385.18808	215.91188	376.56284	-438.98587	248.54402	439.33890	-341.95096	70.36763	331.94034	-325.30502	77.94715	229.13843	77.00569	1052.45654	267.05588	223.94234	802.10266	202.09959	234.32146	620.64301	243.31137	255.66341	538.22754	215.09972	105.51122	210.90900	268.75552	43.27272	197.58707	186.01572	233.11630	119.09051	295.34180	237.90245	106.79102	
1007	5.030	427.09103	-119.41642	1437.04419	510.08255	14.86642	1573.48633	589.81543	-78.95238	1412.20935	662.21454	-29.84039	1271.56213	542.53119	77.41086	1217.32739	512.19171	179.56905	1300.58203	171.08818	-33.12522	1571.28894	173.35094	-205.94009	1452.90356	86.10151	-269.27579	1365.14819	110.01915	-168.35312	1235.05139	101.00056	-12.67662	1240.40930	314.14127	-130.61632	1083.07642	364.93448	-132.46948	1083.44373	472.97241	69.12504	1037.97754	406.51801	4.57704	718.89594	465.50128	-144.32942	562.32117	421.11316	-149.73160	479.99640	423.59860	-390.46469	221.96205	377.20532	-442.21570	256.29184	439.58319	-352.04202	73.31765	333.14795	-333.60403	81.72927	229.01147	77.55666	1054.45959	267.10446	223.15027	802.12988	202.16016	230.69981	620.07245	243.60898	253.92879	538.56787	215.22099	117.61059	205.65837	268.02701	55.05197	190.81522	187.87744	248.15887	118.00282	297.28644	252.40694	106.89110	
1008	5.035	427.52948	-118.73363	1438.91125	509.25192	15.23988	1576.52527	590.63324	-77.46130	1416.50195	663.78497	-28.76569	1276.20996	542.74475	76.46389	1220.85510	510.52124	178.62529	1303.61108	170.52718	-33.91172	1573.30347	174.59392	-206.74478	1455.59924	87.98598	-272.74255	1368.23987	110.58263	-170.00438	1238.17822	99.01732	-14.90475	1243.92004	314.60031	-129.44298	1085.85889	365.28796	-131.18469	1086.16479	472.72598	70.26640	1039.99109	406.60114	3.98836	721.45703	465.55383	-146.14105	565.54749	421.05411	-152.68777	483.08539	424.01736	-395.39996	227.75357	377.61032	-445.52609	263.94202	439.70532	-361.86151	76.53677	334.42792	-341.74698	85.55592	228.42300	77.40182	1054.79749	266.94757	222.15865	801.14215	202.80222	226.95715	619.00366	244.26799	252.07942	538.81042	215.59480	129.20416	200.74004	267.37326	66.50993	184.56694	190.15508	262.65314	117.07469	299.76724	266.02750	107.33557	
1009	5.040	427.93469	-117.93681	1440.45532	508.40851	15.67704	1579.09839	591.35913	-75.99773	1420.71265	665.20197	-27.64329	1280.33423	543.11273	75.56101	1223.85559	508.95142	178.00725	1306.13269	169.86392	-34.58683	1574.97571	175.48360	-207.52155	1457.83521	89.66817	-274.84460	1370.45825	111.15023	-171.37128	1240.85913	97.11366	-16.80660	1247.14209	314.91098	-128.44093	1088.15881	365.55676	-129.97516	1088.47534	472.67676	71.46096	1041.99792	406.75153	3.87475	723.48431	465.66800	-147.71570	568.52539	421.28232	-154.78500	486.05270	424.25754	-400.36395	233.70566	377.41827	-448.45639	271.45615	439.80078	-371.75034	80.15442	335.23483	-349.94995	89.19852	228.73006	78.79115	1057.21667	266.53748	220.75792	799.13049	203.64561	223.48289	617.32361	244.72913	249.76649	538.77350	215.83202	140.25017	196.54379	267.04883	77.36933	179.10178	192.49809	276.20370	116.56490	302.20938	278.59882	107.72172	
1010	5.045	428.16779	-117.37281	1441.91943	507.49365	15.94278	1581.51233	592.07227	-74.44218	1424.55786	666.52228	-26.69810	1284.08606	543.48932	74.30426	1226.49097	507.58359	177.58685	1308.04285	169.21251	-35.18261	1576.24109	176.04509	-208.27794	1459.71851	91.08138	-276.55322	1372.14954	111.57007	-172.55603	1243.05139	95.13616	-18.50612	1250.07263	315.14273	-127.72288	1090.50684	365.93845	-128.90132	1090.21619	472.17114	72.80666	1043.71216	406.66180	4.42728	725.37646	465.85742	-147.98044	570.87573	421.47018	-156.34068	488.33569	424.11142	-405.12463	239.32025	377.00714	-451.49530	278.68051	440.12814	-381.50491	84.69567	336.15051	-358.64020	92.84190	227.93161	78.88236	1056.88586	265.92297	219.10237	796.55988	203.95026	219.43254	615.35541	245.41219	247.74568	538.78253	216.10112	150.67018	192.77333	266.75873	87.57729	174.12741	195.00072	288.87527	116.08919	304.72070	290.59399	108.39462	
1011	5.050	428.42801	-116.93439	1443.06030	506.84042	16.51011	1583.53284	592.77881	-73.24116	1427.89893	667.97479	-25.84239	1287.45056	543.61945	72.74651	1228.43542	505.57806	175.58685	1309.11731	168.45335	-35.80611	1577.21326	176.52538	-208.90988	1461.09412	92.39485	-278.18253	1373.54932	111.73473	-173.40132	1244.82227	93.25939	-20.13428	1252.56299	315.58524	-127.02324	1091.56543	366.15872	-128.18109	1091.74939	472.01422	73.79066	1045.29846	406.72968	5.68587	726.91187	466.30377	-147.80400	572.77942	422.20071	-157.34573	490.22711	423.64856	-410.47614	245.06108	376.12576	-454.64981	285.67233	440.69266	-391.46594	90.25352	336.62854	-367.39569	96.99753	227.97279	80.19540	1058.54041	265.33917	217.37575	793.32837	204.39969	215.53012	613.01648	247.91794	240.25392	537.55646	216.63519	160.38748	189.35809	266.61240	97.19507	169.80286	197.65135	300.64703	115.70190	307.67590	300.94067	109.11100	
1012	5.055	428.51636	-116.45487	1443.99231	505.96783	16.77304	1585.11646	593.64087	-71.90525	1430.76599	669.20490	-25.42342	1290.49072	544.11932	71.41568	1230.04382	504.33618	174.83130	1309.92139	167.64714	-36.40128	1577.85352	176.63245	-209.52599	1462.25391	93.39550	-279.32758	1374.35071	111.91213	-174.16652	1246.06995	91.39251	-21.41368	1254.86145	315.71341	-126.30362	1092.26563	366.39172	-127.24072	1092.82092	471.82739	74.82650	1046.87415	406.91403	7.24285	728.13922	466.97171	-147.02893	574.02191	423.05408	-158.02219	491.42767	422.60370	-415.21521	250.87437	374.35315	-458.22873	292.33929	441.01239	-400.70959	95.97033	337.09177	-375.58554	101.30045	227.60413	80.99489	1058.69714	264.80804	215.29097	789.51617	205.17336	211.79062	610.57294	249.07480	237.37921	536.35657	217.49469	169.13634	186.46909	266.64490	105.87012	166.17757	200.56281	311.10086	115.59313	310.68320	310.27777	109.83646	
1013	5.060	428.73080	-115.95313	1444.68250	505.27625	17.29516	1586.48401	594.08929	-70.94174	1433.50452	670.45776	-24.80707	1293.11865	544.59106	69.96054	1231.19507	503.27188	173.71680	1310.06128	166.82813	-36.82989	1578.15540	176.60129	-210.08186	1462.93494	94.11343	-280.27420	1374.65417	111.68338	-174.65430	1246.90942	89.60161	-22.63514	1256.77808	315.91840	-125.68185	1092.75439	366.44232	-126.30991	1093.45081	471.48221	75.91826	1048.03503	407.37537	9.45893	728.69012	467.66125	-145.82951	574.92444	424.07626	-157.86150	492.21704	421.25900	-420.21219	257.01517	372.35422	-462.18970	298.83719	441.43460	-408.85013	102.14863	337.61353	-382.85458	105.83751	227.07997	81.88785	1058.66174	264.55524	212.72281	785.27405	205.68127	207.46053	607.78931	250.23746	234.26479	534.99988	218.23917	176.67796	183.98125	266.58731	113.42825	163.03426	203.82094	320.59561	115.28815	313.69638	318.11121	110.63892	
